# xmcd
#
# Track frame offsets: 
#        150
#        23493
#        43293
#        66018
#
# Disc length: 1267 seconds
#
# Revision: 1
# Processed by: cddbd v1.5.1PL2 Copyright (c) Steve Scherf et al.
# Submitted via: ExactAudioCopy v0.90b4
#
DISCID=2c04f104
DTITLE=Dallas Frasca - Acoustic Slide Groove
DYEAR=2005
DGENRE=Blues
TTITLE0=Motivation
TTITLE1=Got me goin'
TTITLE2=Freedom
TTITLE3=Her Majesty
EXTD=
EXTT0=
EXTT1=
EXTT2=
EXTT3=
PLAYORDER=
